<svg height="512pt" viewBox="0 -111 512 512" width="512pt" xmlns="http://www.w3.org/2000/svg"><path d="m23.121094 224.996094c3.496094 2.230468 8.273437 1.171875 10.5-2.320313 20.097656-31.484375 51.53125-52.261719 64.117187-59.734375 4.179688-2.480468 4.945313-8.417968 1.527344-11.878906-14.847656-15.03125-23.023437-34.941406-23.023437-56.0625 0-43.996094 35.792968-79.792969 79.789062-79.792969 21.5 0 41.660156 8.425781 56.769531 23.726563 2.953125 2.984375 7.765625 3.015625 10.753907.066406 2.988281-2.953125 3.019531-7.765625.066406-10.753906-17.988282-18.214844-41.992188-28.246094-67.589844-28.246094-52.382812 0-94.996094 42.617188-94.996094 95 0 13.539062 2.832032 26.660156 8.195313 38.683594-2.171875.203125-4.488281.496094-6.867188.925781-19.0625 3.4375-26.277343 12.492187-28.976562 19.484375-4.175781 10.8125-1.960938 21.34375 6.230469 29.65625 1.09375 1.113281 2.222656 2.105469 3.335937 2.992188-7.882813 8.125-15.527344 17.371093-22.152344 27.753906-2.257812 3.539062-1.21875 8.242187 2.320313 10.5zm24.453125-65.425782c3.503906-9.074218 20.574219-11.050781 29.910156-11.113281 1.46875 2.144531 3.019531 4.238281 4.667969 6.269531-8.113282 5.273438-17.984375 12.414063-28.042969 21.355469-1.179687-.796875-2.46875-1.796875-3.660156-3.003906-4.019531-4.082031-4.90625-8.246094-2.875-13.507813zm0 0"/><path d="m111.410156 89.734375c0 6.394531 5.199219 11.59375 11.59375 11.59375 6.390625 0 11.589844-5.199219 11.589844-11.59375 0-6.390625-5.199219-11.589844-11.589844-11.589844-6.394531 0-11.59375 5.199219-11.59375 11.589844zm0 0"/><path d="m177.464844 89.734375c0 6.394531 5.203125 11.59375 11.59375 11.59375 6.394531 0 11.59375-5.199219 11.59375-11.59375 0-6.390625-5.199219-11.589844-11.59375-11.589844-6.390625 0-11.59375 5.199219-11.59375 11.589844zm0 0"/><path d="m311.347656 89.734375c0 6.394531 5.199219 11.59375 11.59375 11.59375 6.390625 0 11.59375-5.199219 11.59375-11.59375 0-6.390625-5.203125-11.589844-11.59375-11.589844-6.394531 0-11.59375 5.199219-11.59375 11.589844zm0 0"/><path d="m377.40625 89.734375c0 6.394531 5.199219 11.59375 11.589844 11.59375 6.394531 0 11.59375-5.199219 11.59375-11.59375 0-6.390625-5.199219-11.589844-11.59375-11.589844-6.390625 0-11.589844 5.199219-11.589844 11.589844zm0 0"/><path d="m362.863281 112.042969c-.605469 1.070312-3.011719 2.769531-6.894531 2.769531s-6.289062-1.699219-6.894531-2.769531c-2.066407-3.65625-6.707031-4.945313-10.363281-2.878907-3.652344 2.066407-4.945313 6.707032-2.878907 10.359376 3.660157 6.476562 11.375 10.496093 20.136719 10.496093s16.476562-4.019531 20.136719-10.496093c2.066406-3.652344.773437-8.292969-2.878907-10.359376-3.660156-2.066406-8.296874-.777343-10.363281 2.878907zm0 0"/><path d="m162.925781 112.042969c-.605469 1.070312-3.011719 2.769531-6.894531 2.769531s-6.289062-1.699219-6.894531-2.769531c-2.066407-3.65625-6.707031-4.945313-10.363281-2.878907-3.652344 2.066407-4.945313 6.707032-2.878907 10.359376 3.660157 6.476562 11.375 10.496093 20.136719 10.496093s16.476562-4.019531 20.136719-10.496093c2.066406-3.652344.773437-8.292969-2.878907-10.359376-3.660156-2.066406-8.296874-.777343-10.363281 2.878907zm0 0"/><path d="m464.386719 182.121094c-3.019531-2.914063-7.832031-2.828125-10.75.191406s-2.832031 7.835938.1875 10.75c26.234375 25.332031 40.570312 52.871094 42.691406 81.957031h-36.382813c-2.335937-15.367187-10.347656-32.988281-10.742187-33.855469-1.753906-3.816406-6.265625-5.492187-10.078125-3.742187-3.820312 1.75-5.496094 6.261719-3.75 10.078125 2.203125 4.808594 7.175781 17.171875 9.160156 27.519531h-132.910156c-1.824219-28.710937-14.007812-56.039062-36.304688-81.339843-15.699218-17.816407-33.300781-30.929688-45.605468-38.945313.359375-.441406.691406-.894531 1.042968-1.339844l61.566407 10.507813c3.199219.542968 6.527343-1.109375 8.023437-3.984375 1.492188-2.875.945313-6.550781-1.332031-8.855469-14.847656-15.03125-23.023437-34.941406-23.023437-56.0625 0-43.996094 35.792968-79.792969 79.789062-79.792969s79.789062 35.796875 79.789062 79.792969c0 21.121094-8.175781 41.03125-23.019531 56.0625-3.421875 3.460938-2.652343 9.398438 1.527344 11.882812 5.683594 3.371094 11.421875 7.167969 17.054687 11.273438 3.351563 2.441406 8.183594 1.679688 10.625-1.664062 2.472657-3.394532 1.726563-8.152344-1.664062-10.625-3.449219-2.515626-6.941406-4.921876-10.4375-7.199219 13.683594-16.863281 21.125-37.746094 21.125-59.734375 0-52.378906-42.617188-94.996094-95-94.996094s-94.996094 42.617188-94.996094 94.996094c0 18.160156 5.074219 35.566406 14.550782 50.578125l-35.546876-6.066407c7.207032-13.554687 11.050782-28.746093 11.050782-44.507812 0-13.78125-2.886719-27.074219-8.582032-39.511719-1.75-3.820312-6.265624-5.496093-10.078124-3.75-3.820313 1.75-5.496094 6.261719-3.75 10.078125 4.78125 10.4375 7.203124 21.601563 7.203124 33.183594 0 16.542969-5.035156 32.332031-14.34375 45.625-.078124.109375-.15625.214844-.226562.328125-2.519531 3.558594-5.328125 6.945313-8.449219 10.109375-3.421875 3.460938-2.652343 9.398438 1.527344 11.878906 10.832031 6.433594 31.699219 20.285156 49.769531 40.789063 19.738282 22.402343 30.640625 46.347656 32.480469 71.289062h-36.382813c-2.335937-15.367187-10.347656-32.988281-10.742187-33.855469-1.75-3.816406-6.261719-5.492187-10.078125-3.742187s-5.496094 6.261719-3.746094 10.078125c2.199219 4.808594 7.171875 17.171875 9.15625 27.519531h-177.507812c1.984375-10.347656 6.957031-22.710937 9.160156-27.519531 1.746094-3.816406.070312-8.328125-3.746094-10.078125s-8.332031-.074219-10.082031 3.742187c-.394531.867188-8.40625 18.488282-10.742187 33.855469h-36.375c.667968-8.988281 2.519531-17.90625 5.527343-26.597656 1.375-3.96875-.726562-8.300781-4.695312-9.671875-3.964844-1.375-8.296875.726562-9.671875 4.695312-4.414063 12.742188-6.652344 25.921876-6.652344 39.179688 0 4.199219 3.40625 7.601562 7.605469 7.601562h496.789062c4.199219 0 7.605469-3.402343 7.605469-7.601562 0-35.675781-16.464844-70.425781-47.613281-100.503906zm0 0"/></svg>